<?xml version="1.0" standalone="no"?>
<!DOCTYPE svg PUBLIC "-//W3C//DTD SVG 20010904//EN"
 "http://www.w3.org/TR/2001/REC-SVG-20010904/DTD/svg10.dtd">
<svg version="1.0" xmlns="http://www.w3.org/2000/svg"
 width="300.000000pt" height="345.000000pt" viewBox="0 0 300.000000 345.000000"
 preserveAspectRatio="xMidYMid meet">
<metadata>
Created by potrace 1.10, written by Peter Selinger 2001-2011
</metadata>
<g transform="translate(0.000000,345.000000) scale(0.100000,-0.100000)"
fill="#000000" stroke="none">
<path d="M1161 3060 c-47 -7 -72 -30 -70 -64 0 -18 2 -17 10 5 13 34 55 55 77
37 12 -10 14 -10 8 0 -5 9 3 12 30 12 29 0 44 -8 75 -39 40 -40 51 -68 23 -57
-9 3 -20 6 -25 6 -6 0 -7 5 -3 12 10 16 -8 4 -93 -59 -40 -30 -73 -57 -73 -61
0 -4 -23 -22 -50 -41 -32 -22 -49 -40 -45 -48 2 -8 0 -11 -5 -8 -6 3 -10 0
-10 -9 0 -8 -4 -16 -8 -18 -13 -5 -89 -170 -101 -221 -6 -27 -11 -74 -10 -106
1 -32 -1 -63 -5 -70 -4 -6 0 -18 9 -27 9 -9 14 -23 11 -30 -6 -16 16 -122 38
-183 20 -54 20 -49 -6 -53 -22 -3 -23 -7 -20 -73 3 -53 13 -91 40 -153 19 -46
41 -86 49 -89 7 -3 13 -13 13 -22 0 -10 3 -21 8 -25 4 -4 7 -11 8 -14 1 -9 23
-62 35 -82 4 -8 18 -34 29 -57 12 -24 26 -43 31 -43 5 0 9 -5 9 -11 0 -7 7
-17 16 -24 13 -9 17 -34 19 -123 3 -108 4 -113 36 -157 18 -25 64 -69 103 -99
39 -29 93 -72 121 -95 l49 -41 46 44 c25 23 79 68 120 99 94 69 216 194 235
241 8 19 15 60 15 91 0 54 0 55 -20 37 -11 -9 -16 -18 -12 -20 12 -4 4 -67
-14 -110 -16 -39 -74 -103 -86 -96 -4 3 -8 -4 -8 -15 0 -12 -3 -21 -7 -21 -5
-1 -30 -21 -58 -46 -27 -25 -72 -61 -100 -80 -27 -18 -63 -45 -79 -59 -16 -14
-32 -25 -36 -25 -4 0 -41 27 -81 60 -41 33 -89 72 -108 87 -55 45 -92 110 -85
152 3 20 1 57 -4 83 -5 25 -6 50 -3 55 9 12 33 15 26 3 -10 -16 85 -106 119
-114 16 -4 67 -7 113 -7 59 0 83 -3 83 -12 0 -9 3 -8 9 1 4 7 24 15 45 16 38
3 140 64 165 98 23 33 125 138 133 138 4 0 8 -5 8 -11 0 -5 14 -40 32 -76 29
-61 32 -74 31 -162 -1 -53 -15 -190 -32 -306 -16 -116 -35 -264 -41 -330 -6
-66 -22 -230 -36 -364 -13 -135 -24 -253 -24 -263 0 -20 30 -25 30 -5 1 11 13
113 24 187 3 19 8 69 11 110 3 41 7 86 9 100 2 14 7 68 11 120 4 52 9 116 10
142 2 25 7 66 11 90 3 23 8 59 9 78 2 19 4 35 5 35 1 0 4 11 6 25 2 14 5 41 8
60 2 19 5 44 5 54 1 16 4 17 13 8 7 -7 16 -12 21 -12 5 0 -1 8 -12 18 -21 16
-22 20 -10 87 6 39 15 88 18 111 4 22 7 64 7 92 -1 56 6 62 43 35 39 -27 109
-62 114 -57 3 3 22 -2 43 -11 57 -24 315 -96 425 -119 38 -8 263 -89 269 -96
3 -4 16 -10 30 -13 14 -3 35 -9 48 -12 42 -13 25 23 -20 44 -90 40 -287 106
-358 120 -84 16 -285 72 -383 107 -108 37 -187 87 -259 161 l-48 48 14 75 c18
100 31 130 56 130 15 0 31 22 65 91 26 50 44 98 42 107 -3 12 -5 11 -6 -5 0
-12 -6 -25 -13 -29 -8 -5 -9 -2 -5 10 4 10 7 27 7 37 0 11 5 17 10 14 6 -4 10
13 10 44 0 27 -4 52 -9 55 -4 3 -19 -9 -32 -26 -13 -17 -30 -37 -36 -44 -19
-19 -16 -31 10 -30 32 1 35 -54 7 -113 -39 -85 -45 -95 -55 -90 -13 5 -12 37
4 169 15 121 19 132 52 140 16 4 24 14 26 30 1 14 13 58 26 99 23 75 24 118 1
225 -5 21 -3 27 6 21 10 -6 12 -1 7 23 -4 19 -2 32 3 32 6 0 10 5 10 11 0 8
-4 8 -12 2 -7 -6 -20 -13 -30 -16 -22 -8 -17 19 7 37 25 18 36 106 18 138 -14
22 -14 22 -9 -8 3 -21 1 -31 -8 -31 -10 0 -10 13 -3 54 6 37 6 58 -2 67 -6 7
-8 15 -5 19 6 6 37 -22 53 -49 9 -17 10 -17 11 -2 0 21 -41 70 -74 87 -14 8
-26 19 -27 25 0 17 -117 108 -129 101 -6 -4 -9 -1 -8 6 3 14 -74 48 -113 48
-15 1 -52 13 -83 27 -45 20 -67 25 -102 20 -24 -3 -49 -8 -54 -11 -5 -3 -19
-1 -30 5 -27 14 -107 20 -143 9 -23 -7 -36 -4 -58 12 -16 11 -33 18 -38 14 -5
-3 -12 -1 -16 5 -7 11 -28 11 -94 0z m190 -83 c4 -15 3 -27 -2 -27 -5 0 -9 7
-9 15 0 8 -15 31 -32 52 l-33 38 35 -26 c19 -14 37 -38 41 -52z m121 7 c62
-10 74 -13 93 -19 20 -7 20 -6 1 9 -25 20 -18 20 20 1 30 -15 84 -65 70 -65
-4 0 -22 10 -39 21 -18 12 -9 1 18 -24 48 -43 74 -55 43 -20 -9 10 -13 23 -11
30 2 6 -7 19 -21 28 -14 10 -23 22 -19 28 3 6 1 7 -5 3 -7 -4 -12 -2 -12 5 0
7 8 9 23 5 12 -3 39 -9 60 -12 20 -4 37 -10 37 -15 0 -5 6 -6 14 -3 7 3 16 -2
19 -10 7 -18 -27 -23 -38 -6 -3 6 -14 10 -23 10 -15 -1 -15 -2 2 -15 11 -8 16
-15 10 -15 -5 -1 2 -10 16 -21 14 -12 26 -25 26 -30 1 -5 2 -13 3 -19 0 -5 8
-10 17 -10 12 0 14 4 7 13 -14 17 -23 57 -13 57 13 0 21 33 10 40 -8 5 -7 9 2
13 8 3 15 -1 16 -9 1 -8 3 -21 4 -29 1 -8 7 -16 15 -19 7 -3 13 -13 13 -23 0
-10 9 -24 20 -31 27 -16 25 -2 -5 42 -32 47 -31 50 6 31 17 -9 29 -19 26 -21
-3 -3 -1 -19 3 -35 5 -17 5 -31 -1 -34 -5 -4 -9 -12 -9 -18 0 -7 4 -6 10 3 5
8 14 15 20 15 6 0 14 6 19 13 8 14 9 13 76 -59 8 -9 15 -24 15 -34 0 -14 3
-15 14 -6 11 9 15 8 19 -6 2 -10 8 -27 12 -38 5 -16 4 -16 -7 3 -13 21 -14 20
-12 -20 1 -24 7 -55 12 -69 6 -15 8 -37 5 -49 -5 -19 -11 -22 -44 -17 -36 5
-127 57 -163 93 -9 8 -21 12 -27 8 -7 -4 -33 -6 -59 -5 -32 1 -51 -4 -60 -14
-16 -19 -31 -20 -24 -1 4 9 -6 16 -30 20 -20 4 -36 11 -36 17 0 6 6 7 13 3 9
-5 9 -4 1 5 -6 6 -35 14 -65 17 -53 5 -54 5 -26 -11 38 -22 34 -28 -9 -10 -20
8 -47 13 -60 11 -16 -3 -24 0 -24 10 0 17 -21 18 -39 2 -11 -10 -13 -10 -7 0
10 17 -55 16 -100 -3 -20 -8 -40 -13 -44 -10 -4 3 -19 -4 -31 -15 l-24 -20 45
6 c25 4 52 10 60 14 18 9 113 6 129 -4 6 -4 9 -12 6 -17 -12 -18 6 -47 46 -74
53 -35 61 -26 9 10 -45 31 -49 44 -21 69 19 17 47 14 36 -4 -3 -5 0 -12 6 -16
8 -4 9 -3 5 5 -9 14 41 14 101 -2 l41 -11 -34 -40 c-39 -46 -52 -97 -34 -132
17 -31 24 -25 10 10 -8 22 -6 37 8 69 26 58 54 81 89 73 21 -5 24 -4 13 4 -11
7 3 10 52 10 62 0 69 -2 117 -40 28 -22 55 -40 61 -40 6 0 9 -4 6 -9 -4 -5 -2
-11 3 -13 11 -4 22 -54 14 -62 -4 -3 -12 -1 -20 5 -9 9 -13 8 -13 0 0 -6 4
-11 9 -11 5 0 17 -8 27 -17 16 -16 16 -16 9 6 -6 18 -4 22 6 15 12 -6 12 -5 0
9 -7 9 -11 17 -7 17 3 0 1 11 -4 24 -13 35 16 43 47 15 25 -24 31 -52 10 -43
-8 3 -14 -2 -14 -11 0 -8 5 -15 10 -15 5 0 7 -9 4 -20 -3 -11 0 -23 5 -27 7
-4 8 -1 3 7 -5 8 -4 11 2 7 6 -4 10 -26 11 -49 0 -24 3 -69 7 -101 7 -50 6
-57 -8 -51 -12 4 -15 -1 -13 -28 2 -18 -1 -42 -5 -53 -8 -20 -8 -20 -8 0 -1
15 -3 17 -10 7 -6 -10 -10 -9 -14 7 -3 13 -1 19 5 15 7 -5 9 2 5 17 -4 14 -9
52 -13 84 -6 53 -42 151 -44 117 0 -7 -5 -10 -11 -6 -8 5 -8 1 0 -14 14 -26
14 -45 1 -37 -12 7 -4 -17 20 -60 13 -24 16 -54 14 -160 -3 -144 -10 -195 -25
-195 -6 0 -9 -6 -6 -12 2 -7 0 -25 -4 -40 -5 -18 -4 -28 3 -28 7 0 7 -4 1 -12
-6 -7 -14 -26 -18 -43 -4 -16 -9 -39 -12 -50 -3 -11 -7 -31 -10 -45 -8 -38
-27 -80 -37 -80 -4 0 -2 -7 5 -16 12 -15 11 -16 -11 -9 -20 6 -23 5 -12 -6 17
-18 15 -42 -3 -35 -13 4 -14 2 -5 -14 9 -17 8 -19 -12 -11 -24 9 -39 44 -17
39 8 -2 13 14 14 50 2 40 0 50 -10 42 -6 -5 -14 -7 -18 -4 -3 3 -1 -12 3 -33
7 -27 5 -42 -4 -53 -7 -8 -12 -31 -11 -52 l2 -36 -39 25 c-22 13 -42 22 -45
19 -3 -3 11 -15 31 -27 39 -23 47 -39 19 -39 -10 0 -25 -5 -33 -11 -12 -8 -10
-9 9 -4 16 5 21 4 17 -4 -4 -6 -14 -11 -22 -11 -8 0 -14 -10 -15 -22 0 -13 -3
-18 -5 -12 -7 18 -44 4 -44 -16 0 -15 -18 -30 -35 -30 -2 0 -1 15 2 34 3 18 1
36 -3 39 -5 3 -10 -11 -11 -30 -3 -54 -23 -67 -23 -16 0 23 -5 45 -11 49 -8 4
-9 -1 -4 -15 10 -31 -13 -81 -36 -81 -11 0 -19 5 -19 11 0 8 -4 8 -14 0 -9 -7
-17 -8 -20 -3 -3 6 -20 7 -41 2 -19 -4 -35 -5 -36 -1 -1 3 -2 15 -2 26 -3 32
-22 23 -21 -10 1 -16 0 -24 -3 -17 -3 6 -13 12 -24 12 -10 0 -19 7 -19 15 0 8
-4 15 -9 15 -6 0 -8 9 -6 19 2 11 -3 22 -11 25 -8 3 -14 0 -14 -7 0 -7 -9 -13
-21 -14 -16 -2 -18 1 -9 12 10 11 8 13 -7 11 -22 -5 -30 33 -10 46 9 6 9 8 0
8 -7 0 -13 7 -13 16 0 8 -4 12 -10 9 -5 -3 -10 -16 -10 -28 0 -20 0 -20 -15
-1 -8 10 -15 27 -15 37 0 9 -4 17 -8 17 -14 0 -52 36 -52 49 0 6 -4 11 -9 11
-9 0 -20 28 -26 67 -2 12 -10 32 -18 45 -9 13 -23 61 -32 108 -9 47 -21 99
-26 116 -5 17 -12 68 -15 113 -3 45 -9 103 -13 129 -4 26 -4 61 0 77 4 17 12
47 17 68 16 61 -3 42 -23 -23 -18 -59 -42 -97 -30 -47 4 16 2 26 -7 30 -17 6
-17 139 1 145 6 2 11 10 11 18 0 8 7 17 15 20 8 4 13 9 11 13 -2 3 2 15 10 26
8 10 14 15 14 9 0 -11 49 67 50 79 1 22 -40 -18 -65 -65 -16 -29 -37 -62 -48
-73 -18 -20 -19 -19 -12 30 4 28 16 79 28 114 16 50 22 60 29 45 4 -11 5 -4 2
18 -5 30 -2 39 15 50 12 7 21 18 21 24 0 6 25 33 56 60 31 27 67 60 80 73 14
13 30 21 39 17 10 -3 15 1 15 13 0 19 42 37 61 26 5 -4 12 1 15 9 3 9 14 16
23 16 9 0 22 5 29 12 9 9 12 7 12 -9 0 -12 6 -28 13 -35 7 -7 26 -30 41 -51
16 -21 31 -35 34 -33 2 3 -10 22 -27 42 -61 69 -68 117 -11 75 24 -17 30 -19
30 -6 0 8 -4 15 -8 15 -5 0 -18 8 -30 18 -17 15 -19 21 -9 32 8 8 8 11 1 7
-15 -8 -39 19 -25 27 5 3 11 3 13 -2 1 -4 18 -18 37 -31 33 -24 33 -24 22 -2
-7 12 -19 25 -27 28 -8 3 -14 10 -14 16 0 6 11 0 25 -13 13 -12 34 -24 47 -26z
m210 18 c4 -4 -25 -5 -65 -3 -57 3 -66 6 -42 12 31 8 95 2 107 -9z m-693
-1024 c0 -24 4 -59 10 -78 14 -44 15 -71 2 -51 -5 8 -16 11 -25 8 -21 -8 -31
29 -17 65 7 20 7 28 -3 31 -8 3 -16 19 -18 36 -4 28 -2 31 24 31 27 0 28 -2
27 -42z m1084 12 c3 -10 -1 -24 -9 -31 -11 -9 -14 -6 -14 20 0 34 15 42 23 11z
m-1053 -185 c0 -14 -2 -25 -4 -25 -2 0 -11 -3 -20 -6 -12 -5 -16 0 -16 19 0
23 10 34 33 36 4 1 7 -10 7 -24z"/>
<path d="M1471 2943 c30 -39 84 -83 87 -73 5 14 -37 60 -55 60 -7 0 -13 4 -13
9 0 5 -7 12 -16 15 -15 6 -15 4 -3 -11z"/>
<path d="M1565 2930 c25 -32 67 -70 79 -70 5 0 -1 11 -14 25 -13 14 -25 23
-28 21 -2 -3 -16 8 -30 23 -25 25 -26 25 -7 1z"/>
<path d="M1453 2919 c3 -9 1 -21 -5 -27 -6 -6 1 -13 21 -20 17 -6 31 -10 31
-8 0 1 -12 18 -26 37 -15 19 -24 27 -21 18z"/>
<path d="M1052 2676 c1 -13 5 -23 9 -20 9 5 21 -25 13 -37 -3 -5 4 -9 15 -9
26 0 27 12 1 35 -11 10 -20 24 -20 31 0 7 -4 16 -10 19 -6 3 -9 -4 -8 -19z"/>
<path d="M1170 2680 c0 -7 -7 -9 -16 -6 -8 3 -12 2 -9 -4 3 -6 0 -10 -7 -10
-8 0 -14 -9 -15 -20 -2 -27 8 -25 41 9 17 18 24 31 17 35 -6 4 -11 2 -11 -4z"/>
<path d="M1686 2325 c-3 -8 -15 -19 -27 -25 -12 -7 -19 -8 -16 -3 3 5 2 15 -4
23 -7 12 -9 10 -9 -7 0 -12 -4 -25 -10 -28 -24 -15 -9 -32 28 -29 50 3 110 26
104 42 -4 14 4 14 33 2 17 -7 17 -9 3 -9 -10 -1 -18 -5 -18 -10 0 -9 16 -9 46
1 7 1 22 -8 36 -22 35 -36 54 -37 28 -1 -27 39 -77 74 -94 68 -8 -3 -19 0 -25
6 -8 8 -15 6 -26 -9 -9 -11 -13 -13 -10 -4 7 20 -31 24 -39 5z"/>
<path d="M1552 2320 c1 -8 -2 -26 -6 -39 -5 -15 -4 -27 4 -35 10 -8 12 -6 7
11 -3 13 0 26 5 30 7 3 8 1 4 -5 -4 -7 -2 -12 3 -12 16 0 13 23 -4 46 -11 13
-15 15 -13 4z"/>
<path d="M1210 2300 c0 -5 -9 -10 -21 -10 -11 0 -30 -5 -41 -11 -15 -8 -19 -8
-14 0 15 24 -24 9 -47 -18 -22 -27 -54 -118 -44 -128 5 -4 27 48 33 75 4 22
11 25 64 29 28 2 66 13 85 25 28 16 35 17 35 6 0 -8 12 -20 26 -27 22 -10 26
-9 21 3 -5 12 0 14 25 9 l32 -6 -28 29 c-17 17 -30 24 -33 18 -5 -13 -43 -7
-43 7 0 5 -11 9 -25 9 -14 0 -25 -4 -25 -10z"/>
<path d="M1653 2200 c-13 -5 -24 -14 -24 -20 -1 -5 -2 -15 -3 -20 0 -6 -8 -15
-16 -20 -8 -5 -12 -11 -10 -13 3 -3 55 -7 115 -11 61 -3 122 -9 138 -12 46
-11 30 11 -31 40 -59 28 -123 36 -172 21 -24 -7 -24 -6 -8 11 26 27 114 30
160 6 21 -11 35 -15 32 -10 -20 31 -130 48 -181 28z"/>
<path d="M1375 2145 c0 -29 3 -51 8 -48 4 2 7 -2 7 -9 0 -9 3 -9 10 2 16 24
11 76 -7 93 -17 15 -18 12 -18 -38z"/>
<path d="M1526 2183 c-16 -16 -2 -83 18 -83 7 0 10 14 8 40 -4 40 -13 55 -26
43z"/>
<path d="M1298 2162 c8 -5 -8 -9 -45 -9 -34 0 -71 -7 -90 -16 -41 -22 -49 -21
-32 1 13 15 12 16 -3 3 -10 -7 -15 -17 -12 -22 3 -5 -2 -12 -10 -15 -9 -4 -16
-18 -16 -33 1 -22 2 -24 11 -8 7 13 23 17 62 17 29 0 57 4 63 10 5 5 35 11 65
12 41 2 55 6 51 16 -3 8 -11 10 -21 6 -39 -16 -51 -16 -51 0 0 12 6 15 24 10
20 -5 24 -2 22 12 -2 10 -9 20 -17 22 -11 3 -11 2 -1 -6z"/>
<path d="M1630 2086 c21 -27 102 -47 155 -39 59 8 37 21 -38 22 -26 1 -64 8
-84 16 -44 19 -49 19 -33 1z"/>
<path d="M1202 2046 c-69 -17 -75 -25 -15 -19 52 6 124 31 88 31 -11 0 -44 -5
-73 -12z"/>
<path d="M1407 2054 c-4 -4 -7 -17 -7 -29 0 -11 -5 -26 -10 -31 -10 -10 -2
-104 9 -104 3 0 6 19 6 43 0 23 3 57 8 75 9 36 6 58 -6 46z"/>
<path d="M1316 1965 c-20 -20 -20 -55 -2 -99 9 -22 10 -38 4 -49 -7 -13 -5
-17 7 -17 14 0 16 4 19 40 1 9 9 14 21 12 26 -5 33 -13 17 -19 -16 -6 -46 -63
-37 -71 4 -4 13 1 20 12 8 11 19 15 26 10 8 -4 45 -7 84 -5 38 2 80 3 91 3 20
0 21 2 7 29 -14 29 -53 41 -53 17 0 -7 -12 -18 -26 -25 -22 -10 -28 -9 -42 9
-40 49 -54 59 -80 57 -15 -2 -33 0 -40 4 -15 10 -16 69 0 85 6 6 9 14 6 17 -3
3 -13 -1 -22 -10z"/>
<path d="M1076 1961 c-4 -7 -10 -27 -12 -44 l-3 -32 15 34 c15 33 15 67 0 42z"/>
<path d="M1640 1929 c0 -6 -10 -24 -21 -41 -15 -21 -24 -26 -29 -18 -9 15 -46
8 -75 -14 -18 -13 -17 -14 23 -9 40 5 42 4 42 -20 0 -13 7 -27 15 -31 18 -6
20 10 3 20 -8 5 -6 11 5 19 9 6 21 24 26 38 16 40 43 33 94 -23 25 -27 48 -50
52 -50 10 0 -29 52 -74 98 -41 42 -61 52 -61 31z"/>
<path d="M1861 1800 c-1 -20 -3 -22 -11 -10 -8 13 -10 12 -10 -2 0 -10 5 -18
11 -18 5 0 7 -6 3 -12 -5 -10 -4 -10 5 -2 7 6 11 24 8 40 -4 27 -4 27 -6 4z"/>
<path d="M1660 1802 c0 -7 -4 -10 -10 -7 -5 3 -10 -2 -10 -11 0 -10 3 -14 7
-11 7 7 43 -21 43 -33 0 -3 -38 -4 -83 -2 -54 3 -92 0 -106 -8 -19 -10 -25 -9
-37 7 -8 10 -13 13 -14 6 0 -9 -17 -13 -50 -13 -94 0 -156 -47 -94 -70 32 -13
43 -13 24 0 -12 7 -13 13 -4 27 12 19 35 22 204 23 52 0 104 -1 115 -4 11 -2
26 -5 33 -5 7 -1 10 -5 7 -11 -9 -14 8 -13 23 2 9 9 12 7 12 -11 0 -12 4 -19
10 -16 12 7 5 87 -10 115 -13 25 -30 26 -30 3 -1 -14 -4 -12 -15 7 -8 14 -14
19 -15 12z"/>
<path d="M1254 1752 c-13 -32 -13 -40 0 -71 l15 -36 0 33 c1 24 10 42 31 62
38 35 38 45 0 46 -26 2 -33 -4 -46 -34z"/>
<path d="M1104 1726 c2 -23 10 -44 21 -52 13 -9 16 -21 12 -42 -3 -15 -1 -34
4 -42 6 -10 9 3 8 42 -2 31 -6 55 -11 52 -4 -3 -8 3 -8 13 -1 10 -7 29 -15 43
-15 25 -15 24 -11 -14z"/>
<path d="M1685 1650 c-4 -6 -10 -8 -14 -6 -4 3 -34 -8 -67 -24 -32 -16 -52
-29 -44 -30 13 0 13 -1 0 -11 -20 -14 23 -3 66 18 29 13 85 63 71 63 -3 0 -9
-5 -12 -10z"/>
<path d="M1410 1638 c0 -11 112 -10 128 0 7 5 -19 8 -58 8 -38 -1 -70 -4 -70
-8z"/>
<path d="M1310 1631 c0 -11 57 -61 70 -61 5 0 15 -3 24 -6 25 -10 19 13 -8 28
-13 7 -38 21 -55 31 -17 10 -31 13 -31 8z"/>
<path d="M1172 1554 c-2 -21 1 -33 7 -30 5 4 14 -2 20 -11 6 -10 11 -13 11 -6
0 6 -4 15 -10 18 -5 3 -10 19 -10 36 0 42 -15 36 -18 -7z"/>
<path d="M1444 1521 l-31 -6 29 -23 c23 -19 28 -21 28 -7 0 9 5 13 10 10 6 -3
10 3 10 14 0 12 -3 20 -7 20 -5 -1 -22 -4 -39 -8z"/>
<path d="M1500 1510 c0 -23 0 -23 35 -10 31 12 24 30 -11 30 -17 0 -24 -5 -24
-20z"/>
<path d="M1489 1448 c-1 -7 -2 -18 -3 -25 0 -7 -10 -19 -21 -27 -19 -14 -19
-14 8 -13 24 2 27 6 27 40 0 34 -9 53 -11 25z"/>
<path d="M1115 1310 c-42 -43 -113 -74 -245 -105 -260 -61 -315 -76 -423 -119
-61 -24 -128 -49 -149 -55 -68 -22 -129 -101 -153 -201 -9 -36 -31 -97 -50
-135 -43 -90 -97 -226 -92 -232 12 -11 35 14 56 62 13 30 27 52 32 49 5 -3 8
-2 7 3 -3 11 10 49 37 108 12 28 28 75 35 105 18 75 43 131 71 157 27 24 108
63 214 100 39 13 84 31 100 38 34 15 203 57 305 75 60 11 150 40 192 61 23 12
41 11 33 -1 -18 -29 -67 -194 -99 -330 -30 -131 -48 -241 -102 -625 -3 -22
-10 -60 -16 -85 -5 -25 -12 -75 -15 -112 -4 -58 -3 -68 11 -68 9 0 16 3 16 6
0 4 23 158 50 343 71 470 121 708 173 824 20 44 49 157 43 164 -1 2 -15 -11
-31 -27z"/>
<path d="M2182 972 c-45 -19 -79 -39 -75 -43 7 -7 146 51 162 67 16 15 -16 6
-87 -24z"/>
<path d="M790 973 c0 -6 18 -30 40 -54 21 -24 39 -39 39 -34 0 6 -18 30 -39
54 -22 24 -40 39 -40 34z"/>
<path d="M1418 885 c-47 -32 -58 -53 -63 -115 -2 -35 -20 -83 -64 -172 -79
-161 -102 -236 -142 -463 -23 -132 -23 -135 -5 -135 10 0 18 22 26 73 24 150
49 246 98 372 58 155 78 195 95 195 15 0 17 -136 2 -161 -8 -12 -6 -12 8 0 9
7 17 20 17 27 0 8 4 14 9 14 5 0 11 -69 15 -152 3 -84 7 -169 8 -190 1 -25 5
-35 14 -31 8 3 12 19 11 41 -1 21 2 43 6 50 5 6 6 16 2 21 -3 5 -7 52 -9 103
-3 63 -13 121 -30 177 -19 62 -23 87 -14 92 19 12 33 0 34 -29 1 -15 15 -56
31 -92 27 -58 46 -106 48 -120 1 -9 27 -75 37 -94 6 -12 6 -16 -1 -11 -6 3
-11 2 -11 -4 0 -5 5 -11 10 -13 6 -2 12 -19 14 -38 2 -19 7 -43 11 -52 4 -10
5 -25 1 -33 -3 -8 -1 -15 4 -15 5 0 8 -13 6 -30 -2 -16 1 -30 5 -30 5 0 9 -14
9 -30 0 -29 22 -51 37 -37 9 9 -37 253 -64 342 -13 44 -47 128 -74 187 l-50
106 32 64 c17 34 40 69 50 76 17 12 15 17 -28 72 -25 33 -47 60 -47 60 -1 0
-18 -11 -38 -25z m45 -39 c20 -16 29 -73 13 -84 -6 -4 -23 -33 -38 -64 -17
-36 -34 -58 -44 -58 -13 0 -15 6 -9 28 4 15 9 41 12 57 3 17 9 35 14 42 7 7 6
14 -1 18 -15 9 -12 32 7 55 20 23 22 24 46 6z"/>
<path d="M2935 858 c-3 -29 -13 -98 -21 -153 -8 -55 -17 -176 -20 -270 -3 -93
-6 -197 -8 -231 -1 -33 0 -69 4 -79 8 -22 20 179 20 329 0 96 5 150 30 360 6
49 9 91 6 93 -2 2 -7 -20 -11 -49z"/>
<path d="M2305 754 c-12 -68 -84 -425 -110 -543 -14 -63 -24 -119 -22 -124 1
-5 18 55 36 134 57 244 116 557 107 566 -3 3 -8 -12 -11 -33z"/>
<path d="M1578 735 c2 -14 8 -25 13 -25 5 0 5 -8 2 -17 -6 -15 -4 -16 9 -6 8
7 19 9 23 5 5 -4 -4 10 -19 31 -16 20 -29 37 -31 37 -1 0 0 -11 3 -25z"/>
<path d="M599 263 c-5 -69 -5 -83 1 -83 3 0 7 20 9 45 1 25 -1 45 -4 45 -3 0
-5 -3 -6 -7z"/>
<path d="M593 110 c0 -36 2 -50 4 -32 2 17 2 47 0 65 -2 17 -4 3 -4 -33z"/>
</g>
</svg>
